<mxfile modified="2019-10-20T19:39:01.018Z" host="www.draw.io" agent="Mozilla/5.0 (Windows NT 10.0; Win64; x64; rv:68.0) Gecko/20100101 Firefox/68.0" etag="e0M0D38_DkUaVyJNlfVl" version="12.1.3" type="github" pages="1">
  <diagram id="Ht1M8jgEwFfnCIfOTk4-" name="Page-1">
    <mxGraphModel dx="1656" dy="1732" grid="1" gridSize="10" guides="1" tooltips="1" connect="1" arrows="1" fold="1" page="1" pageScale="1" pageWidth="1169" pageHeight="827" math="0" shadow="0">
      <root>
        <mxCell id="0"/>
        <mxCell id="1" parent="0"/>
        <mxCell id="UEzPUAAOIrF-is8g5C7q-155" value="" style="rounded=0;whiteSpace=wrap;html=1;dashed=1;labelBackgroundColor=#ffffff;fillColor=none;gradientColor=none;align=left;" parent="1" vertex="1">
          <mxGeometry x="590" y="-510" width="170" height="160" as="geometry"/>
        </mxCell>
        <mxCell id="UEzPUAAOIrF-is8g5C7q-158" value="Amazon S3&lt;br&gt;Bucket&lt;br&gt;" style="outlineConnect=0;fontColor=#232F3E;gradientColor=none;fillColor=#277116;strokeColor=none;dashed=0;verticalLabelPosition=bottom;verticalAlign=top;align=center;html=1;fontSize=12;fontStyle=0;aspect=fixed;pointerEvents=1;shape=mxgraph.aws4.bucket_with_objects;labelBackgroundColor=#ffffff;" parent="1" vertex="1">
          <mxGeometry x="870" y="-460" width="75" height="78" as="geometry"/>
        </mxCell>
        <mxCell id="iOhvE3Qq9spuYCGrNjIp-3" value="" style="edgeStyle=orthogonalEdgeStyle;rounded=0;orthogonalLoop=1;jettySize=auto;html=1;startArrow=blockThin;startFill=1;endArrow=none;endFill=0;" edge="1" parent="1" source="UEzPUAAOIrF-is8g5C7q-159" target="iOhvE3Qq9spuYCGrNjIp-2">
          <mxGeometry relative="1" as="geometry"/>
        </mxCell>
        <mxCell id="UEzPUAAOIrF-is8g5C7q-159" value="Role" style="outlineConnect=0;fontColor=#232F3E;gradientColor=none;fillColor=#C7131F;strokeColor=none;dashed=0;verticalLabelPosition=bottom;verticalAlign=top;align=center;html=1;fontSize=12;fontStyle=0;aspect=fixed;pointerEvents=1;shape=mxgraph.aws4.role;labelBackgroundColor=#ffffff;" parent="1" vertex="1">
          <mxGeometry x="630" y="-340" width="78" height="44" as="geometry"/>
        </mxCell>
        <mxCell id="iOhvE3Qq9spuYCGrNjIp-5" value="" style="edgeStyle=orthogonalEdgeStyle;rounded=0;orthogonalLoop=1;jettySize=auto;html=1;" edge="1" parent="1" source="iOhvE3Qq9spuYCGrNjIp-1" target="UEzPUAAOIrF-is8g5C7q-158">
          <mxGeometry relative="1" as="geometry">
            <mxPoint x="820" y="-421" as="targetPoint"/>
          </mxGeometry>
        </mxCell>
        <mxCell id="iOhvE3Qq9spuYCGrNjIp-1" value="Amazon EC2" style="outlineConnect=0;fontColor=#232F3E;gradientColor=none;strokeColor=#ffffff;fillColor=#232F3E;dashed=0;verticalLabelPosition=middle;verticalAlign=bottom;align=center;html=1;whiteSpace=wrap;fontSize=10;fontStyle=1;spacing=3;shape=mxgraph.aws4.productIcon;prIcon=mxgraph.aws4.ec2;" vertex="1" parent="1">
          <mxGeometry x="630" y="-471" width="80" height="100" as="geometry"/>
        </mxCell>
        <mxCell id="iOhvE3Qq9spuYCGrNjIp-2" value="Policy to allow access to S3" style="shape=image;html=1;verticalAlign=top;verticalLabelPosition=bottom;labelBackgroundColor=#ffffff;imageAspect=0;aspect=fixed;image=https://cdn2.iconfinder.com/data/icons/amazon-aws-stencils/100/Deployment__Management_copy_AWS_CloudFormation_Template-128.png" vertex="1" parent="1">
          <mxGeometry x="605" y="-241" width="128" height="128" as="geometry"/>
        </mxCell>
        <mxCell id="iOhvE3Qq9spuYCGrNjIp-8" value="&lt;div&gt;Bucket policy to allow EC2 &lt;br&gt;&lt;/div&gt;&lt;div&gt;read/write access&lt;/div&gt;" style="shape=image;html=1;verticalAlign=top;verticalLabelPosition=bottom;labelBackgroundColor=#ffffff;imageAspect=0;aspect=fixed;image=https://cdn2.iconfinder.com/data/icons/amazon-aws-stencils/100/Deployment__Management_copy_AWS_CloudFormation_Template-128.png" vertex="1" parent="1">
          <mxGeometry x="938.5" y="-444" width="128" height="128" as="geometry"/>
        </mxCell>
      </root>
    </mxGraphModel>
  </diagram>
</mxfile>
